<?xml version="1.0" encoding="UTF-8"?>
<!-- Generator: visioncortex VTracer 0.6.4 -->
<svg version="1.1" xmlns="http://www.w3.org/2000/svg" width="1024" height="401">
<path d="M0 0 C337.92 0 675.84 0 1024 0 C1024 132.33 1024 264.66 1024 401 C686.08 401 348.16 401 0 401 C0 268.67 0 136.34 0 0 Z " fill="#FCFDFE" transform="translate(0,0)"/>
<path d="M0 0 C9.47141885 6.06346634 17.98931826 13.20663644 26.41796875 20.62353516 C28.91016741 22.79190183 31.45412402 24.89505134 34 27 C34.37769531 26.59910156 34.75539062 26.19820312 35.14453125 25.78515625 C51.11555106 9.29049644 77.62832998 -12.43929079 101.8125 -13.5 C110.3706087 -12.88870652 117.85448359 -10.05280388 124 -4 C133.71016516 7.53082113 135.18684562 20.64523886 135.18530273 35.13452148 C135.18746339 37.3991246 135.20556737 39.66321898 135.22460938 41.92773438 C135.27333039 54.18896613 134.07516952 65.99881535 130.875 77.875 C130.60236328 78.92494141 130.60236328 78.92494141 130.32421875 79.99609375 C129.88962456 81.66585036 129.44591485 83.33323092 129 85 C129.63421875 85.11214844 130.2684375 85.22429687 130.921875 85.33984375 C149.80766806 89.33090223 168.50565809 99.42476956 183 112 C183.63679688 112.51820313 184.27359375 113.03640625 184.9296875 113.5703125 C191.46906624 119.3540297 196.12128777 127.8167853 197.578125 136.41015625 C197.96467367 147.99281101 194.14475102 156.73572404 186.59765625 165.375 C174.10678422 177.99735489 157.50712378 186.01832448 141 192 C140.06542969 192.3403125 139.13085938 192.680625 138.16796875 193.03125 C135.00939086 194.1334355 132.36745429 195 129 195 C129.26554687 195.94359375 129.53109375 196.8871875 129.8046875 197.859375 C136.83036754 223.22158168 141.37774037 254.82885547 128 279 C123.50257268 285.89946237 116.77586057 290.42311597 109 293 C89.29907158 295.23073683 71.6953142 285.35440387 56.625 273.5 C49.05976872 267.40870829 41.75693747 260.98216872 35 254 C31.8628666 255.37677688 29.93373318 256.92505507 27.625 259.4375 C12.09281887 275.31484071 -11.33587265 292.68267208 -34.125 293.375 C-43.82711735 293.06202847 -51.11000411 289.92892242 -58 283 C-66.73609488 271.31380772 -69.37676948 258.38083677 -69.25 244.0625 C-69.24395752 242.96510498 -69.23791504 241.86770996 -69.23168945 240.73706055 C-69.04276333 225.04245264 -66.8567822 210.20674125 -63 195 C-63.54785156 194.85304687 -64.09570312 194.70609375 -64.66015625 194.5546875 C-86.40608547 188.4021807 -112.69190599 176.72268794 -124.55859375 156.3203125 C-129.12612023 147.39228623 -130.99660836 138.70991335 -128.046875 128.796875 C-119.08815448 109.12887939 -97.24340098 97.62580435 -77.93505859 90.20654297 C-74.89121228 89.08729762 -71.83623577 88.02919192 -68.7578125 87.0078125 C-65.84275833 86.0651905 -65.84275833 86.0651905 -63 84 C-63.26554687 82.85144531 -63.53109375 81.70289063 -63.8046875 80.51953125 C-64.16169556 78.95057479 -64.51845265 77.38156122 -64.875 75.8125 C-65.04902344 75.06291016 -65.22304687 74.31332031 -65.40234375 73.54101562 C-68.00061584 62.04125583 -69.36851468 50.86130319 -69.3125 39.0625 C-69.30512817 37.22099365 -69.30512817 37.22099365 -69.29760742 35.34228516 C-69.1072132 20.64775674 -66.97841396 6.76937022 -56.66796875 -4.46875 C-39.36296024 -20.35531519 -17.3501524 -10.75345558 0 0 Z " fill="#19C3FC" transform="translate(209,55)"/>
<path d="M0 0 C3.42509875 -0.06693211 6.84400154 -0.16226667 10.2658987 -0.32720947 C32.24953353 -1.36020717 32.24953353 -1.36020717 37.66961575 2.21405029 C40.87076331 5.63121332 42.49185583 9.55208523 43.94525051 13.9520874 C44.89459526 16.65444446 46.32919495 18.96517698 47.83792019 21.39056396 C50.31207522 25.70228884 52.75971042 30.02889907 55.19924831 34.36029053 C56.51373745 36.68013721 57.85087827 38.98530358 59.19338894 41.28900146 C59.93931193 42.60346428 60.68418185 43.91852551 61.42776394 45.23431396 C62.07358425 46.35579834 62.71940456 47.47728271 63.38479519 48.63275146 C64.97507753 52.80282516 64.83641537 54.54135765 63.61526394 58.85931396 C61.75909891 62.99724683 59.62118255 66.95414783 57.42776394 70.92181396 C56.80281033 72.05546387 56.17785671 73.18911377 55.53396511 74.3571167 C54.23065816 76.70595189 52.91432085 79.04688418 51.58792019 81.38275146 C50.30131774 83.65022904 49.02476832 85.92344922 47.75979519 88.20306396 C46.02532102 91.30329545 44.23785924 94.36525652 42.42776394 97.42181396 C41.90738552 98.36097656 41.3870071 99.30013916 40.85085964 100.26776123 C37.02853029 106.5030203 37.02853029 106.5030203 33.22306728 107.46240234 C31.89752079 107.52980621 31.89752079 107.52980621 30.54519558 107.59857178 C29.56961193 107.65384537 28.59402828 107.70911896 27.58888149 107.7660675 C26.1169408 107.8122245 26.1169408 107.8122245 24.61526394 107.85931396 C23.74317791 107.88819199 22.87109188 107.91707001 21.972579 107.94682312 C19.344897 108.0059703 16.72015152 108.0239963 14.09182644 108.02728271 C12.66802166 108.03227531 12.66802166 108.03227531 11.21545315 108.03736877 C9.23072698 108.04238644 7.24599253 108.04477872 5.26126003 108.0446167 C2.22677908 108.04682377 -0.80734943 108.0650897 -3.84176731 108.08392334 C-5.78056816 108.08685428 -7.71937072 108.08884108 -9.65817356 108.08978271 C-10.56030582 108.09696823 -11.46243809 108.10415375 -12.39190769 108.11155701 C-20.67633123 108.08139467 -20.67633123 108.08139467 -24.38473606 105.85931396 C-25.98703098 103.99017334 -25.98703098 103.99017334 -27.36520481 101.70306396 C-27.884697 100.85405518 -28.40418919 100.00504639 -28.93942356 99.13031006 C-29.47825169 98.21588135 -30.01707981 97.30145264 -30.57223606 96.35931396 C-31.42108372 94.95093262 -31.42108372 94.95093262 -32.28707981 93.51409912 C-52.5766074 59.62396196 -52.5766074 59.62396196 -52.27145481 53.63665771 C-50.93664901 49.45583425 -48.99507289 45.64111418 -47.00973606 41.73431396 C-46.56855442 40.85920166 -46.12737278 39.98408936 -45.672822 39.0824585 C-41.2898663 30.49365177 -36.5074689 22.15587329 -31.57858372 13.87103271 C-30.51696656 12.08213182 -29.47118758 10.28385311 -28.42770481 8.48431396 C-27.89790012 7.57681396 -27.36809544 6.66931396 -26.82223606 5.73431396 C-26.387822 4.98923584 -25.95340794 4.24415771 -25.50582981 3.47650146 C-21.48479713 -2.3238732 -6.3030119 0.12102414 0 0 Z " fill="#CEF6FC" transform="translate(236.3847360610962,141.14068603515625)"/>
<path d="M0 0 C71.82046679 0 71.82046679 0 84.21484375 12.17578125 C93.31376623 21.96576113 94.50310357 30.69057679 94.265625 43.54296875 C93.86351504 52.99452384 89.89359784 59.05745373 83.4296875 65.796875 C77.31442975 71.34189971 72.0645016 73.17916406 64 74 C64.57105469 74.69480469 65.14210938 75.38960938 65.73046875 76.10546875 C73.14808967 85.40992488 79.28906396 95.32896446 85.45898438 105.48974609 C88.37791882 110.24457563 91.43553132 114.90856855 94.48828125 119.578125 C96 122 96 122 96 123 C72.12942629 125.09412737 72.12942629 125.09412737 65.8828125 120.9140625 C64.23290928 118.12022638 63.02463138 115.37937519 61.93945312 112.32568359 C59.94221488 107.38137706 57.04145444 102.85599578 54.375 98.25 C53.29894147 96.31800772 52.22340559 94.38572422 51.1484375 92.453125 C50.60799805 91.53982422 50.06755859 90.62652344 49.51074219 89.68554688 C48 87 48 87 46.93457031 84.33007812 C45.72788769 81.36546582 45.72788769 81.36546582 42 78 C35.73 77.67 29.46 77.34 23 77 C23 92.18 23 107.36 23 123 C15.41 123 7.82 123 0 123 C0 82.41 0 41.82 0 0 Z " fill="#0380DE" transform="translate(452,115)"/>
<path d="M0 0 C6.55384415 5.97630233 10.58973866 15.32847577 11.30218506 24.09825134 C11.38492239 27.90757509 11.37723311 31.71017756 11.33203125 35.51953125 C11.32642461 36.91913901 11.32215957 38.31875273 11.31916809 39.71836853 C11.30780311 43.37300338 11.27840992 47.02727122 11.24505615 50.6817627 C11.21417335 54.42255695 11.20062415 58.16341144 11.18554688 61.90429688 C11.15353038 69.22284164 11.10083289 76.5410098 11.0390625 83.859375 C4.4390625 83.859375 -2.1609375 83.859375 -8.9609375 83.859375 C-9.4559375 80.394375 -9.4559375 80.394375 -9.9609375 76.859375 C-10.43402344 77.18550781 -10.90710938 77.51164062 -11.39453125 77.84765625 C-16.39183143 81.14996573 -21.19707626 83.26202586 -26.9609375 84.859375 C-27.7653125 85.08625 -28.5696875 85.313125 -29.3984375 85.546875 C-40.8963879 86.94906407 -50.30009082 84.91198986 -59.69140625 77.9609375 C-65.13946963 72.91608707 -68.54751477 66.54257341 -69.19921875 59.16015625 C-69.3974205 51.179928 -68.62742613 45.03073001 -63.23046875 38.890625 C-54.06060671 30.25155338 -44.00870905 28.44405366 -31.76171875 28.640625 C-23.85016576 29.09596618 -17.59819623 31.67501624 -10.9609375 35.859375 C-10.85210154 33.48312323 -10.77327054 31.11193524 -10.7109375 28.734375 C-10.67742188 28.06921875 -10.64390625 27.4040625 -10.609375 26.71875 C-10.50834086 21.56600895 -11.58150223 18.71998813 -14.9609375 14.859375 C-19.49683253 11.80959942 -23.7368622 11.3140541 -29.0859375 11.359375 C-29.83004883 11.36219482 -30.57416016 11.36501465 -31.34082031 11.36791992 C-39.33396105 11.59931842 -45.93606008 14.22177042 -52.6015625 18.58984375 C-53.76945313 19.21826172 -53.76945313 19.21826172 -54.9609375 19.859375 C-58.72169415 18.60578945 -59.43742881 17.15263613 -61.6484375 13.921875 C-62.27105469 13.02597656 -62.89367187 12.13007813 -63.53515625 11.20703125 C-64.9609375 8.859375 -64.9609375 8.859375 -64.9609375 6.859375 C-46.99259215 -7.43107466 -20.03936477 -14.3037162 0 0 Z " fill="#0480DC" transform="translate(722.9609375,154.140625)"/>
<path d="M0 0 C8.77071246 7.04921898 14.32803939 17.20979957 15.68359375 28.35546875 C15.68359375 33.30546875 15.68359375 38.25546875 15.68359375 43.35546875 C-6.09640625 43.68546875 -27.87640625 44.01546875 -50.31640625 44.35546875 C-47.01740498 56.33617026 -47.01740498 56.33617026 -38.25390625 63.33984375 C-30.93463662 67.17655767 -19.51161005 66.30228936 -11.69140625 64.10546875 C-7.77351325 62.72229369 -4.61234231 60.87078838 -1.31640625 58.35546875 C2.01232525 59.76238359 3.81526747 61.36238456 5.99609375 64.23046875 C6.52847656 64.90851563 7.06085938 65.5865625 7.609375 66.28515625 C8.68359375 68.35546875 8.68359375 68.35546875 8.63671875 70.39453125 C5.91648501 75.99107772 -1.52398686 78.71102446 -7.04296875 80.6953125 C-21.48233604 84.94907693 -36.21804924 85.31929175 -49.7734375 78.03515625 C-62.26781938 70.24479208 -69.38663349 59.34398556 -72.8515625 45.07421875 C-75.05999673 32.15766226 -71.9990907 20.21029428 -65.37890625 9.10546875 C-63.21391399 6.2188124 -60.96024979 3.81046632 -58.31640625 1.35546875 C-57.42953125 0.53046875 -56.54265625 -0.29453125 -55.62890625 -1.14453125 C-39.07390566 -14.66230951 -16.51486995 -11.72472217 0 0 Z " fill="#047FDD" transform="translate(625.31640625,156.64453125)"/>
<path d="M0 0 C0.78947021 0.14099121 1.57894043 0.28198242 2.39233398 0.42724609 C5.40221599 0.96230701 8.4129767 1.49211594 11.42416382 2.01977539 C13.43517565 2.3745899 15.44473168 2.73697226 17.4543457 3.09960938 C23.85301411 4.23661781 30.11541867 5.16263518 36.61328125 5.40405273 C41.76342707 5.64228335 44.96898424 6.09019826 48.890625 9.55078125 C51.15326065 12.26029482 53.02105448 15.17323895 54.85400391 18.18457031 C56.74162424 21.17484403 58.93869978 23.91240493 61.125 26.6875 C61.94873798 27.75718053 62.77166821 28.82748362 63.59375 29.8984375 C67.01295334 34.30565739 70.49403623 38.66161467 74 43 C63.37382426 56.28271968 50.01362835 66.36303319 35.125 74.4375 C34.51873779 74.7677417 33.91247559 75.0979834 33.2878418 75.43823242 C26.2317744 79.13611111 18.9514132 81.33535184 11 80 C4.39868376 77.34273482 0.93322221 73.19044323 -2.02734375 66.85546875 C-4.80884095 58.68970789 -5.32233286 51.03882102 -5.25 42.4375 C-5.24395752 41.28870361 -5.23791504 40.13990723 -5.23168945 38.95629883 C-5.07543059 25.48867884 -3.10877811 13.10824875 0 0 Z " fill="#DEF8FD" transform="translate(159,254)"/>
<path d="M0 0 C5.94622725 22.22618925 11.84762257 50.22831665 0.25 71.625 C-2.71095283 76.03740029 -4.98455248 78.16100258 -10 80 C-18.19816223 81.46854036 -24.73737854 78.56511496 -32 75 C-32.9075 74.56558594 -33.815 74.13117188 -34.75 73.68359375 C-48.8863037 66.47161323 -61.00177418 55.28765282 -72 44 C-70.58009444 40.93772118 -68.88665931 38.37176696 -66.83984375 35.69140625 C-66.21609863 34.86753418 -65.59235352 34.04366211 -64.94970703 33.19482422 C-63.59049802 31.4167374 -62.22810959 29.64107715 -60.86279297 27.86767578 C-57.88599298 23.97027413 -54.97829703 20.16303002 -52.60546875 15.86328125 C-49.8500719 10.92194956 -47.8776552 7.55634228 -42.203125 5.875 C-38.53912545 5.34326502 -34.88275605 5.2186018 -31.18554688 5.12011719 C-27.73532553 4.93049376 -24.50507135 4.224301 -21.125 3.5 C-19.91585937 3.24605469 -18.70671875 2.99210937 -17.4609375 2.73046875 C-16.31882812 2.48941406 -15.17671875 2.24835938 -14 2 C-11.91840823 1.59510804 -9.83520628 1.19834526 -7.75 0.8125 C-6.89921875 0.65394531 -6.0484375 0.49539062 -5.171875 0.33203125 C-3 0 -3 0 0 0 Z " fill="#E1F7FD" transform="translate(325,254)"/>
<path d="M0 0 C17.31262989 5.96395429 31.54738602 18.15694232 44.80859375 30.36328125 C46.96567638 32.35039089 46.96567638 32.35039089 49.90234375 34.2109375 C48.23984833 38.05603864 45.70468752 41.11004117 43.08984375 44.3359375 C37.85717187 50.87988464 32.92757017 57.61678304 28.05541992 64.43212891 C27.26421753 65.53886963 27.26421753 65.53886963 26.45703125 66.66796875 C25.98765137 67.32772705 25.51827148 67.98748535 25.03466797 68.66723633 C23.20695193 71.15896736 23.20695193 71.15896736 20.99487305 71.53637695 C19.74830933 71.67885864 19.74830933 71.67885864 18.4765625 71.82421875 C17.54360352 71.93596436 16.61064453 72.04770996 15.64941406 72.1628418 C14.63975586 72.28183838 13.63009766 72.40083496 12.58984375 72.5234375 C3.66911373 73.61927286 -5.09877051 75.06458116 -13.88793945 76.94067383 C-17.01408717 77.60668909 -19.89053868 78.2109375 -23.09765625 78.2109375 C-26.74596485 64.41466371 -29.25571387 51.42894849 -29.34765625 37.0859375 C-29.35700195 36.08433594 -29.36634766 35.08273438 -29.37597656 34.05078125 C-29.32545919 22.2219451 -28.09502634 11.02563677 -19.59765625 2.2109375 C-13.55418877 -2.65958343 -7.17783224 -1.82840115 0 0 Z " fill="#E2F8FD" transform="translate(183.09765625,57.7890625)"/>
<path d="M0 0 C5.96660209 4.85627576 9.05945248 11.30111759 10.578125 18.75390625 C10.84031807 23.95724686 10.82203656 29.16953708 10.828125 34.37890625 C10.82979675 35.12389374 10.83146851 35.86888123 10.83319092 36.63644409 C10.83511625 50.9056794 9.09409898 63.91931298 5.578125 77.75390625 C-0.43699436 77.15239431 -6.14918174 75.91264482 -12.03125 74.53125 C-15.46206578 73.83186629 -18.81753495 73.5702414 -22.3125 73.3828125 C-39.53697956 72.30611596 -39.53697956 72.30611596 -43.8359375 67.90625 C-46.05382988 65.02402148 -47.74344931 61.8977523 -49.38427734 58.66015625 C-51.11820669 55.47462206 -53.35668463 52.70984298 -55.609375 49.87890625 C-56.02348633 49.34386475 -56.43759766 48.80882324 -56.86425781 48.25756836 C-60.21607521 43.93608927 -63.75435314 39.80784109 -67.421875 35.75390625 C-63.58615338 31.06810113 -59.60181065 26.85864609 -54.984375 22.94140625 C-54.38238281 22.43005127 -53.78039062 21.91869629 -53.16015625 21.3918457 C-40.93499209 11.20473512 -16.82949642 -8.65904735 0 0 Z " fill="#E6F8FD" transform="translate(319.421875,58.24609375)"/>
<path d="M0 0 C19.99334182 4.97051541 43.91618103 15.49145585 56 33 C58.23167636 37.76090957 58.92114691 41.8103241 58 47 C51.5577323 62.51354907 34.60061045 71.40234854 19.85302734 77.67211914 C4.46943845 84 4.46943845 84 0 84 C-0.4846875 82.77667969 -0.969375 81.55335938 -1.46875 80.29296875 C-5.35730842 70.51043183 -9.3113178 60.76468708 -13.47265625 51.09448242 C-13.78976562 50.35174072 -14.106875 49.60899902 -14.43359375 48.84375 C-14.71259521 48.19599609 -14.99159668 47.54824219 -15.27905273 46.88085938 C-17.24304368 41.75705773 -17.24304368 41.75705773 -16.19897461 38.50488281 C-15.77108643 37.58030273 -15.34319824 36.65572266 -14.90234375 35.703125 C-14.4328833 34.66857178 -13.96342285 33.63401855 -13.47973633 32.56811523 C-12.97079834 31.47313721 -12.46186035 30.37815918 -11.9375 29.25 C-7.5678187 19.61609535 -3.52253875 9.97309495 0 0 Z " fill="#E2F8FD" transform="translate(334,153)"/>
<path d="M0 0 C0.2928186 0.79712402 0.2928186 0.79712402 0.59155273 1.61035156 C1.53294116 4.15966089 2.48375948 6.70528526 3.4375 9.25 C3.7886084 10.1891626 4.1397168 11.1283252 4.50146484 12.09594727 C6.3770356 17.02786642 8.35161991 21.86460306 10.60546875 26.63671875 C11.23594116 27.97331543 11.23594116 27.97331543 11.87915039 29.33691406 C12.69565377 31.04128287 13.52896143 32.73772537 14.38061523 34.42480469 C17.13625072 40.17600754 17.13625072 40.17600754 16.5078125 43.9765625 C16.01023437 44.97429687 15.51265625 45.97203125 15 47 C14.34588059 48.47650492 13.69515726 49.95451664 13.046875 51.43359375 C12.28343632 53.10256432 11.51771206 54.77049083 10.75 56.4375 C7.30218588 63.98015806 4.11684204 71.56472953 1.19140625 79.32421875 C0 82 0 82 -2 83 C-4.38374502 82.32024819 -6.62663833 81.56743271 -8.9375 80.6875 C-9.6382666 80.42114746 -10.3390332 80.15479492 -11.06103516 79.88037109 C-27.20321904 73.51918118 -48.32659316 64.07122955 -56.1875 47.49609375 C-57.73523667 42.74126811 -58.04800634 38.39308534 -56.0078125 33.734375 C-46.24265041 17.95563851 -19.03520389 0 0 0 Z " fill="#D6F7FD" transform="translate(151,154)"/>
<path d="M0 0 C4.05150209 2.93715452 7.05525727 6.3144324 10.125 10.25 C6.32024578 14.81030824 2.37530379 19.10089392 -1.875 23.25 C-5.78379961 21.59627709 -8.63711625 18.94823646 -11.875 16.25 C-17.4349806 12.55184776 -25.49351468 13.76155629 -31.875 14.25 C-37.2652574 15.44872888 -40.052828 18.09247003 -43.25 22.5 C-48.3213159 30.97516107 -49.52023145 40.65211304 -47.1171875 50.2890625 C-44.89075552 56.79304883 -42.49314643 61.86460114 -36.5 65.5625 C-29.9746549 68.55074215 -22.05435661 68.39932307 -15.21875 66.51953125 C-10.30024014 64.4561153 -6.09421103 61.48173611 -1.875 58.25 C-0.60099623 59.49676853 0.66906654 60.7475648 1.9375 62 C2.64519531 62.69609375 3.35289062 63.3921875 4.08203125 64.109375 C5.94775879 66.06428645 7.55669642 68.05338553 9.125 70.25 C6.22098734 76.93802916 -0.24659221 81.52898447 -6.765625 84.47265625 C-18.92806999 88.95474246 -31.71572905 88.56674271 -43.68359375 83.79296875 C-53.81190762 78.89617073 -63.00583962 70.13822134 -67.1328125 59.546875 C-71.43811021 46.22311155 -71.6104185 31.39943279 -65.62109375 18.5625 C-59.09272265 6.89325901 -49.63664874 -0.15655402 -37.125 -4.625 C-25.04547941 -7.84620549 -10.69935927 -6.66926728 0 0 Z " fill="#0380DD" transform="translate(821.875,152.75)"/>
<path d="M0 0 C6.93 0 13.86 0 21 0 C21 8.58 21 17.16 21 26 C26.94 26 32.88 26 39 26 C39 31.94 39 37.88 39 44 C33.06 44 27.12 44 21 44 C21.04410083 50.90558152 21.1138814 57.81024421 21.20751953 64.71533203 C21.23575288 67.06454152 21.25695558 69.41384641 21.27099609 71.76318359 C21.29239224 75.13949518 21.33902737 78.51465667 21.390625 81.890625 C21.39185364 82.94179504 21.39308228 83.99296509 21.39434814 85.07598877 C21.42595557 90.72577589 21.42595557 90.72577589 23.84960938 95.66992188 C26.77545089 97.47963856 28.83878235 97.39831381 32.25 97.25 C33.32765625 97.21390625 34.4053125 97.1778125 35.515625 97.140625 C36.33546875 97.09421875 37.1553125 97.0478125 38 97 C38.50588147 98.91512272 39.00448391 100.83216922 39.5 102.75 C39.7784375 103.81734375 40.056875 104.8846875 40.34375 105.984375 C41 109 41 109 41 113 C30.92802533 116.92636301 21.50727558 118.94909761 11.0390625 114.97265625 C6.06234701 112.59870576 2.70951076 109.51624148 0.59555054 104.28707886 C-0.73170328 99.19005692 -0.35865346 93.85755877 -0.29296875 88.62890625 C-0.28872391 87.35144028 -0.28447906 86.0739743 -0.28010559 84.75779724 C-0.2662045 81.38251703 -0.2393115 78.00785948 -0.20599365 74.63275146 C-0.17515321 71.18035221 -0.1615706 67.7278883 -0.14648438 64.27539062 C-0.11347314 57.5167346 -0.06171958 50.75845238 0 44 C-4.62 44 -9.24 44 -14 44 C-14 38.06 -14 32.12 -14 26 C-9.38 26 -4.76 26 0 26 C0 17.42 0 8.84 0 0 Z " fill="#0580DD" transform="translate(854,123)"/>
<path d="M0 0 C6.4715699 5.2081957 10.10676043 11.14119341 11.15625 19.4765625 C11.42495197 29.21700894 9.47285235 36.69046519 3.07421875 44.22265625 C-4.13952567 50.9720677 -11.98301576 51.88460002 -21.5546875 51.65625 C-28.86939966 50.8520956 -34.03071896 47.84825018 -39.125 42.625 C-44.10544331 36.37295414 -47.07450864 28.54959149 -46.62890625 20.5 C-45.25715724 12.35435638 -41.43107729 5.69321875 -35.25 0.25 C-23.9688216 -7.52878853 -11.33074477 -7.96559877 0 0 Z " fill="#19C3FD" transform="translate(259.25,171.75)"/>
<path d="M0 0 C34.49609773 -0.60875467 34.49609773 -0.60875467 43 7 C47.24907814 11.82327789 48.16883217 14.33774109 48.25 20.75 C48.27578125 21.96171875 48.3015625 23.1734375 48.328125 24.421875 C47.8397886 29.74706716 46.03271215 32.91811108 42.375 36.75 C34.62341882 42.6242177 23.59679905 41.23735964 14.4375 41.125 C7.2909375 41.063125 7.2909375 41.063125 0 41 C0 27.47 0 13.94 0 0 Z " fill="#FBFCFD" transform="translate(475,133)"/>
<path d="M0 0 C5.1972083 3.08460263 9.60810698 7.2735397 11.546875 13.08984375 C12.13141302 19.41859192 11.98971622 25.58357783 8.546875 31.08984375 C3.65148462 36.46205787 -0.87187442 39.66494961 -8.140625 40.52734375 C-14.37677469 40.32693818 -20.08173119 37.55226076 -24.38671875 33.08203125 C-29.29036798 26.70846318 -30.42521227 21.08498845 -29.453125 13.08984375 C-27.08908741 7.16503585 -23.08927213 3.30700663 -17.69140625 0.015625 C-12.37564265 -2.18304162 -5.35359238 -1.98628507 0 0 Z " fill="#077FD9" transform="translate(794.453125,279.91015625)"/>
<path d="M0 0 C5.00507615 2.62598166 9.34070039 7.29858829 11.8671875 12.3515625 C12.56390741 19.77562713 12.46006763 26.23720196 7.8671875 32.3515625 C3.09008206 37.12866794 -1.82728116 39.93085851 -8.5703125 40.7890625 C-16.35058312 39.83359067 -20.82712788 36.13803559 -25.78515625 30.25390625 C-29.26667284 25.33941762 -28.77463136 19.09875868 -28.1328125 13.3515625 C-25.97250536 7.65282126 -22.00156572 3.84436372 -17.1328125 0.3515625 C-11.79083404 -1.42909699 -5.42271281 -1.6486636 0 0 Z " fill="#0A81DA" transform="translate(503.1328125,279.6484375)"/>
<path d="M0 0 C4.89872999 2.85759249 7.79346527 7.1303958 9.5625 12.4375 C9.5625 15.4075 9.5625 18.3775 9.5625 21.4375 C-0.6675 21.4375 -10.8975 21.4375 -21.4375 21.4375 C-18.65986589 27.62429226 -18.65986589 27.62429226 -13.4375 30.4375 C-8.00175105 30.89047908 -3.62187304 30.15701821 1.58203125 28.58203125 C3.5625 28.4375 3.5625 28.4375 5.32421875 29.88671875 C5.73285156 30.39847656 6.14148438 30.91023438 6.5625 31.4375 C5.48040362 34.57557951 4.61518214 35.40657788 1.6875 37.125 C-4.9193856 39.89989195 -10.54784295 40.31432698 -17.4375 37.9375 C-22.78244932 35.6607964 -26.22020342 32.22900898 -29.4375 27.4375 C-31.39756086 21.55731742 -31.26565527 14.83479157 -29.25 9 C-22.22405484 -0.93323281 -11.62297742 -5.11675666 0 0 Z " fill="#0D7FD7" transform="translate(600.4375,280.5625)"/>
<path d="M0 0 C5.11490619 2.39791443 8.01130889 5.59457475 10.75390625 10.53125 C11.50390625 13.28125 11.50390625 13.28125 11.50390625 22.28125 C1.27390625 22.28125 -8.95609375 22.28125 -19.49609375 22.28125 C-18.28056887 28.23772071 -18.28056887 28.23772071 -14.99609375 29.59375 C-14.17109375 29.820625 -13.34609375 30.0475 -12.49609375 30.28125 C-11.83609375 30.61125 -11.17609375 30.94125 -10.49609375 31.28125 C-5.45077072 31.59014733 -1.29879888 30.85688388 3.48828125 29.42578125 C5.50390625 29.28125 5.50390625 29.28125 7.26953125 30.54296875 C8.50390625 32.28125 8.50390625 32.28125 8.50390625 35.28125 C2.37347246 39.92551802 -4.26140595 40.82020937 -11.7109375 39.94921875 C-17.61988483 38.53206589 -22.52133248 35.07548658 -25.99609375 30.09375 C-28.97073787 24.51629227 -28.96000586 19.48161376 -28.49609375 13.28125 C-26.68006907 7.37916978 -22.25832323 3.9515033 -17.49609375 0.28125 C-12.59830682 -2.16764347 -5.14582007 -1.48173849 0 0 Z " fill="#0B7FD9" transform="translate(680.49609375,279.71875)"/>
<path d="M0 0 C4.59071657 2.71308765 8.05547302 6.2398523 10.45703125 11.04296875 C10.45703125 14.67296875 10.45703125 18.30296875 10.45703125 22.04296875 C0.55703125 22.04296875 -9.34296875 22.04296875 -19.54296875 22.04296875 C-16.46215951 28.51451233 -16.46215951 28.51451233 -10.54296875 31.04296875 C-5.86723316 31.453121 -2.79985058 30.88378251 1.45703125 29.04296875 C2.77703125 29.04296875 4.09703125 29.04296875 5.45703125 29.04296875 C7.20703125 31.54296875 7.20703125 31.54296875 8.45703125 34.04296875 C2.27249764 38.46049276 -2.84898017 40.81236761 -10.54296875 40.04296875 C-18.18582008 38.09527438 -23.13931921 34.6013092 -27.54296875 28.04296875 C-29.45839852 22.29667945 -29.70928818 15.33272177 -27.671875 9.5859375 C-26.45777094 7.50404759 -25.17316906 5.81528908 -23.54296875 4.04296875 C-23.08148437 3.51703125 -22.62 2.99109375 -22.14453125 2.44921875 C-16.37406525 -2.82328825 -7.00564589 -2.6365334 0 0 Z " fill="#097FD9" transform="translate(883.54296875,279.95703125)"/>
<path d="M0 0 C2.18878745 1.28575137 3.52524366 2.07663281 4.98828125 4.16796875 C5.93499136 9.71298513 6.78295708 16.6155409 3.40625 21.41796875 C1.33492913 23.00215297 -0.62948835 24.11647145 -3.01171875 25.16796875 C-4.37296875 25.84859375 -4.37296875 25.84859375 -5.76171875 26.54296875 C-12.0355674 27.74947811 -18.33905247 28.04265953 -24.44921875 26.04296875 C-28.46606601 23.10381222 -31.40705931 19.98194707 -33.01171875 15.16796875 C-33.39077918 10.54343146 -33.46848183 8.11803595 -31.44921875 3.91796875 C-23.08422277 -5.51946261 -10.99738882 -4.82406468 0 0 Z " fill="#FBFCFD" transform="translate(708.01171875,198.83203125)"/>
<path d="M0 0 C2.97 0 5.94 0 9 0 C13.01139134 8.53751873 16.55362648 17.22418291 20 26 C22.96513159 20.27965763 25.46506003 14.52125811 27.75 8.5 C28.06582031 7.67757813 28.38164063 6.85515625 28.70703125 6.0078125 C29.47494507 4.00658254 30.23799052 2.00348559 31 0 C33.97 0 36.94 0 40 0 C37.80984381 7.84241496 35.01488434 15.36564774 31.97631836 22.91259766 C31.19265447 24.86217684 30.41917596 26.81558157 29.64648438 28.76953125 C27.2353093 34.82543914 24.72124369 40.83951066 21.98828125 46.7578125 C21.55684814 47.70027832 21.12541504 48.64274414 20.6809082 49.61376953 C18.53389379 52.66168803 16.42604113 53.62783916 13 55 C10.4453125 55.29296875 10.4453125 55.29296875 8.125 55.1875 C7.34382812 55.16042969 6.56265625 55.13335937 5.7578125 55.10546875 C5.17773438 55.07066406 4.59765625 55.03585937 4 55 C4.33 52.36 4.66 49.72 5 47 C6.11375 46.71125 7.2275 46.4225 8.375 46.125 C12.00291092 45.30758671 12.00291092 45.30758671 14 43 C14.64731636 37.65164847 12.96457326 33.64929024 10.9375 28.828125 C10.62675537 28.06449646 10.31601074 27.30086792 9.99584961 26.51409912 C9.00700269 24.08859393 8.00425316 21.6691621 7 19.25 C5.99820744 16.81563447 4.9993862 14.3801076 4.00415039 11.9430542 C3.38530289 10.42991028 2.76221538 8.91849223 2.13452148 7.40899658 C0 2.22132404 0 2.22132404 0 0 Z " fill="#087FD9" transform="translate(724,279)"/>
<path d="M0 0 C4.83706646 4.96779798 7 10.07942408 7 17 C-7.85 17 -22.7 17 -38 17 C-37.04470835 8.40237513 -36.40042518 4.22231273 -30.359375 -1.57421875 C-21.24072415 -8.74180692 -8.61182951 -7.07328921 0 0 Z " fill="#FAFCFD" transform="translate(613,169)"/>
<path d="M0 0 C2.64 0 5.28 0 8 0 C8.33 1.32 8.66 2.64 9 4 C9.721875 3.34 10.44375 2.68 11.1875 2 C16.06458071 -1.26694402 22.40428931 -0.95246139 28 0 C31.47734674 2.23019706 33.5503072 4.14333892 35 8 C35.22705078 11.39160156 35.22705078 11.39160156 35.1953125 15.390625 C35.1924826 16.09523865 35.18965271 16.79985229 35.18673706 17.52581787 C35.17557801 19.7673876 35.15048193 22.00855186 35.125 24.25 C35.11496464 25.77343171 35.10583976 27.29686971 35.09765625 28.8203125 C35.07565291 32.54700586 35.04115272 36.27346333 35 40 C32.36 40 29.72 40 27 40 C26.98541748 39.20303711 26.97083496 38.40607422 26.95581055 37.58496094 C26.88132525 33.97281876 26.78466488 30.36160026 26.6875 26.75 C26.66494141 25.49574219 26.64238281 24.24148438 26.61914062 22.94921875 C26.58369141 21.74394531 26.54824219 20.53867187 26.51171875 19.296875 C26.48553467 18.18666992 26.45935059 17.07646484 26.43237305 15.93261719 C25.9541966 12.68933345 25.35856335 11.2585643 23 9 C17.37763774 8.27137484 17.37763774 8.27137484 12.41088867 10.63964844 C9.34547625 13.64080361 9.35280652 15.06833956 9.29296875 19.296875 C9.26396484 20.50214844 9.23496094 21.70742188 9.20507812 22.94921875 C9.19927734 24.20347656 9.19347656 25.45773437 9.1875 26.75 C9.16236328 28.01972656 9.13722656 29.28945313 9.11132812 30.59765625 C9.05241035 33.73208201 9.0161625 36.86510958 9 40 C6.03 40 3.06 40 0 40 C0 26.8 0 13.6 0 0 Z " fill="#097FD9" transform="translate(813,279)"/>
<path d="M0 0 C2.97 0 5.94 0 9 0 C11.53456425 5.5565447 13.93661855 11.16084735 16.25 16.8125 C16.52021973 17.45840088 16.79043945 18.10430176 17.06884766 18.76977539 C18.43041227 22.13165791 19 24.30663381 19 28 C19.66 28 20.32 28 21 28 C21.08121094 27.24460937 21.16242187 26.48921875 21.24609375 25.7109375 C22.3095695 20.47621232 24.19628572 15.62091041 26.0625 10.625 C26.43955078 9.60277344 26.81660156 8.58054687 27.20507812 7.52734375 C28.13200101 5.01643873 29.06376447 2.50744426 30 0 C32.97 0 35.94 0 39 0 C38.38036074 4.89391471 36.92050297 9.21867589 35.09375 13.76953125 C34.80898804 14.49113937 34.52422607 15.2127475 34.23083496 15.95622253 C33.63177828 17.47086378 33.02988217 18.98438479 32.42529297 20.49682617 C31.49693353 22.82017426 30.57785929 25.1470342 29.66015625 27.47460938 C29.07605777 28.94812962 28.49144078 30.42144446 27.90625 31.89453125 C27.63018921 32.59238235 27.35412842 33.29023346 27.06970215 34.00923157 C25.11637902 38.88362098 25.11637902 38.88362098 24 40 C22.48071962 40.07179964 20.95832518 40.08392007 19.4375 40.0625 C18.61121094 40.05347656 17.78492188 40.04445313 16.93359375 40.03515625 C16.29550781 40.02355469 15.65742187 40.01195312 15 40 C14.68772461 39.20416504 14.37544922 38.40833008 14.05371094 37.58837891 C12.87607338 34.5876259 11.69814089 31.58698887 10.52001953 28.58642578 C10.01371955 27.29675741 9.5075314 26.00704514 9.00146484 24.71728516 C8.50980127 23.46427323 8.01798094 22.2113228 7.52600098 20.95843506 C6.8040739 19.11989601 6.08269822 17.28114047 5.36132812 15.44238281 C3.8304303 11.57121005 2.2624995 7.71604951 0.67285156 3.86865234 C0 2 0 2 0 0 Z " fill="#097FD9" transform="translate(611,279)"/>
<path d="M0 0 C-0.66 2.31 -1.32 4.62 -2 7 C-4.64 7.33 -7.28 7.66 -10 8 C-10.33 10.31 -10.66 12.62 -11 15 C-8.36 15 -5.72 15 -3 15 C-3 17.64 -3 20.28 -3 23 C-5.64 23 -8.28 23 -11 23 C-11 33.56 -11 44.12 -11 55 C-13.97 55 -16.94 55 -20 55 C-20 44.44 -20 33.88 -20 23 C-21.65 23 -23.3 23 -25 23 C-25 20.36 -25 17.72 -25 15 C-23.35 15 -21.7 15 -20 15 C-20.08701172 14.11248047 -20.08701172 14.11248047 -20.17578125 13.20703125 C-20.42722884 8.8031064 -20.52493966 6.70491897 -17.8125 3.0625 C-12.13977258 -1.09750011 -6.84761899 -2.28253966 0 0 Z " fill="#0780DC" transform="translate(475,264)"/>
<path d="M0 0 C0 3.56899962 -0.92894624 5.07560246 -2.6328125 8.19140625 C-3.19226563 9.21943359 -3.75171875 10.24746094 -4.328125 11.30664062 C-4.92109375 12.38107422 -5.5140625 13.45550781 -6.125 14.5625 C-6.69476563 15.60986328 -7.26453125 16.65722656 -7.8515625 17.73632812 C-11.41568735 24.25300641 -15.12373484 30.66417125 -19 37 C-21.43653404 34.56346596 -22.14332502 32.43823392 -23.3828125 29.22265625 C-23.82753906 28.06958984 -24.27226562 26.91652344 -24.73046875 25.72851562 C-25.42076172 23.91383789 -25.42076172 23.91383789 -26.125 22.0625 C-26.82689453 20.25362305 -26.82689453 20.25362305 -27.54296875 18.40820312 C-31 9.38263028 -31 9.38263028 -31 6 C-20.6992843 3.43105638 -10.55343612 1.27109532 0 0 Z " fill="#CEF6FC" transform="translate(195,143)"/>
<path d="M0 0 C6.75534931 -0.21238928 12.78031989 0.51733416 19.375 1.9375 C20.70724609 2.21110352 20.70724609 2.21110352 22.06640625 2.49023438 C25.45391109 3.19489688 28.71416433 3.90472144 32 5 C30.01588793 12.01845443 27.65343162 18.79534569 24.9375 25.5625 C24.4105957 26.91311523 24.4105957 26.91311523 23.87304688 28.29101562 C23.53208984 29.14501953 23.19113281 29.99902344 22.83984375 30.87890625 C22.53425537 31.6479126 22.22866699 32.41691895 21.91381836 33.20922852 C21 35 21 35 19 36 C18.55011719 34.98164063 18.10023438 33.96328125 17.63671875 32.9140625 C12.82141493 22.24505954 7.18922798 12.35234688 0.8828125 2.49609375 C0 1 0 1 0 0 Z " fill="#D2F6FC" transform="translate(289,144)"/>
<path d="M0 0 C0.66 0 1.32 0 2 0 C2.29656494 0.57331055 2.59312988 1.14662109 2.89868164 1.73730469 C10.56225448 16.55041627 10.56225448 16.55041627 18.85546875 31.015625 C20 33 20 33 20 34 C12.67044415 33.63603233 5.51847428 32.86012765 -1.6875 31.5 C-2.38230469 31.36940186 -3.07710937 31.23880371 -3.79296875 31.10424805 C-8.72166575 30.13916712 -8.72166575 30.13916712 -11 29 C-10.43093823 24.77968545 -9.44043969 21.27086411 -7.71484375 17.3828125 C-7.04291992 15.85527344 -7.04291992 15.85527344 -6.35742188 14.296875 C-5.88884766 13.25015625 -5.42027344 12.2034375 -4.9375 11.125 C-4.46505859 10.05507812 -3.99261719 8.98515625 -3.50585938 7.8828125 C-2.34332699 5.2524362 -1.17455398 2.62502483 0 0 Z " fill="#CFF6FC" transform="translate(175,212)"/>
<path d="M0 0 C0.66 0 1.32 0 2 0 C3.46371812 3.68538492 4.91999729 7.37366645 6.375 11.0625 C6.7875 12.10083984 7.2 13.13917969 7.625 14.20898438 C9.67895604 19.42669527 11.59785353 24.56860845 13 30 C8.60554278 30.8407021 4.20923004 31.6712735 -0.1875 32.5 C-1.43337891 32.73847656 -2.67925781 32.97695312 -3.96289062 33.22265625 C-5.7659668 33.56103516 -5.7659668 33.56103516 -7.60546875 33.90625 C-9.26292114 34.22045898 -9.26292114 34.22045898 -10.95385742 34.54101562 C-13.6982428 34.95453206 -16.23175475 35.09009749 -19 35 C-18.55011719 34.23300781 -18.10023438 33.46601563 -17.63671875 32.67578125 C-11.42447937 21.95686721 -5.69425699 11.00112814 0 0 Z " fill="#D4F5FC" transform="translate(308,211)"/>
<path d="M0 0 C12.87 0 25.74 0 39 0 C34.50279765 7.87010412 34.50279765 7.87010412 31.80078125 11.11328125 C31.23166016 11.80357422 30.66253906 12.49386719 30.07617188 13.20507812 C29.2031543 14.24825195 29.2031543 14.24825195 28.3125 15.3125 C27.14033232 16.72393752 25.96968246 18.13663737 24.80078125 19.55078125 C24.28684814 20.16606689 23.77291504 20.78135254 23.2434082 21.4152832 C21.92008586 22.99292502 21.92008586 22.99292502 21 25 C20.34 25 19.68 25 19 25 C17.60126876 23.49576101 16.28204731 21.91734851 15 20.3125 C14.20722656 19.32121094 13.41445312 18.32992188 12.59765625 17.30859375 C11.73056057 16.20668045 10.86472464 15.10377495 10 14 C9.53835449 13.41234863 9.07670898 12.82469727 8.60107422 12.21923828 C7.20824986 10.441624 5.82124812 8.65968665 4.4375 6.875 C3.99599609 6.30692627 3.55449219 5.73885254 3.09960938 5.15356445 C0 1.11951402 0 1.11951402 0 0 Z " fill="#D6F6FC" transform="translate(223,262)"/>
<path d="M0 0 C4.09142595 1.56492329 6.15229755 4.27463405 8.875 7.625 C9.31118652 8.16044434 9.74737305 8.69588867 10.19677734 9.24755859 C20 21.34461195 20 21.34461195 20 24 C7.79 24 -4.42 24 -17 24 C-12.63270498 15.26540997 -6.03861073 7.64261671 0 0 Z " fill="#D3F5FC" transform="translate(241,104)"/>
<path d="M0 0 C-0.33 2.97 -0.66 5.94 -1 9 C-3.97851562 9.63476562 -3.97851562 9.63476562 -6.95703125 10.26953125 C-9.4482983 11.16029021 -10.39148045 11.89035614 -12 14 C-12.50664617 16.90087655 -12.50664617 16.90087655 -12.51171875 20.19921875 C-12.54716797 21.40771484 -12.58261719 22.61621094 -12.61914062 23.86132812 C-12.65297852 25.7552832 -12.65297852 25.7552832 -12.6875 27.6875 C-12.72166016 28.96173828 -12.75582031 30.23597656 -12.79101562 31.54882812 C-12.87360784 34.69913103 -12.94272335 37.84915157 -13 41 C-15.97 41 -18.94 41 -22 41 C-22 27.8 -22 14.6 -22 1 C-19.36 1 -16.72 1 -14 1 C-13.67 2.65 -13.34 4.3 -13 6 C-12.05125 5.195625 -11.1025 4.39125 -10.125 3.5625 C-6.61404615 0.58582173 -4.65870626 -0.12259753 0 0 Z " fill="#0E81D9" transform="translate(721,278)"/>
<path d="M0 0 C0 2.97 0 5.94 0 9 C-2.97851562 9.63476562 -2.97851562 9.63476562 -5.95703125 10.26953125 C-8.4482983 11.16029021 -9.39148045 11.89035614 -11 14 C-11.50664617 16.90087655 -11.50664617 16.90087655 -11.51171875 20.19921875 C-11.54716797 21.40771484 -11.58261719 22.61621094 -11.61914062 23.86132812 C-11.65297852 25.7552832 -11.65297852 25.7552832 -11.6875 27.6875 C-11.72166016 28.96173828 -11.75582031 30.23597656 -11.79101562 31.54882812 C-11.87360784 34.69913103 -11.94272335 37.84915157 -12 41 C-14.97 41 -17.94 41 -21 41 C-21 27.8 -21 14.6 -21 1 C-18.36 1 -15.72 1 -13 1 C-12.67 2.32 -12.34 3.64 -12 5 C-11.55269531 4.6390625 -11.10539063 4.278125 -10.64453125 3.90625 C-4.6397188 -0.7029877 -4.6397188 -0.7029877 0 0 Z " fill="#0B81D9" transform="translate(543,278)"/>
<path d="M0 0 C3.72593308 0.05931297 5.91702925 0.424265 8.8125 2.8125 C12.5557723 6.84371632 12.64037018 9.53230059 12.609375 14.88671875 C12.03039966 18.99618504 10.25085071 20.65099577 7.25 23.4375 C3.78749757 25.16875121 0.03591771 24.91565224 -3.75 24.4375 C-7.21868763 22.37104779 -9.55891972 20.33558091 -10.75 16.4375 C-11.34634961 10.27522067 -10.76631683 7.39883256 -6.75 2.4375 C-4.29006058 -0.02243942 -3.39998115 0.08757527 0 0 Z " fill="#F9FBFC" transform="translate(784.75,286.5625)"/>
<path d="M0 0 C3.0097291 1.77847628 5.41086334 3.82172667 7 7 C7.42526125 11.62062705 7.56310381 15.71290557 5.6875 20 C3.71117878 22.34230663 2.02193088 23.81507917 -1.05078125 24.37109375 C-5.31020603 24.49615458 -8.12290024 24.39700198 -11.5 21.625 C-15.45158563 17.47583509 -15.52764738 14.37995697 -15.46875 8.77734375 C-14.93950741 5.64158141 -14.28645601 4.47943672 -12 2.3125 C-7.82105556 -0.59165533 -4.98853501 -0.87101405 0 0 Z " fill="#FBFCFD" transform="translate(499,287)"/>
<path d="M0 0 C2.84820044 2.77516966 4.72397816 4.75024226 6.4375 8.375 C6.4375 12.005 6.4375 15.635 6.4375 19.375 C-1.8125 19.375 -10.0625 19.375 -18.5625 19.375 C-18.5625 19.045 -18.5625 18.715 -18.5625 18.375 C-15.0975 17.88 -15.0975 17.88 -11.5625 17.375 C-11.5625 16.715 -11.5625 16.055 -11.5625 15.375 C-15.8525 15.375 -20.1425 15.375 -24.5625 15.375 C-24.5625 15.045 -24.5625 14.715 -24.5625 14.375 C-16.9725 14.375 -9.3825 14.375 -1.5625 14.375 C-3.70666489 7.79255725 -3.70666489 7.79255725 -6.3984375 5.96875 C-9.93695005 4.99789457 -13.45289015 4.91438927 -17.1015625 4.71875 C-19.5625 4.375 -19.5625 4.375 -21.5625 2.375 C-21.2325 1.385 -20.9025 0.395 -20.5625 -0.625 C-14.45502899 -3.07659048 -5.84213587 -2.66483391 0 0 Z " fill="#057EDB" transform="translate(602.5625,281.625)"/>
<path d="M0 0 C3.58552881 1.63687185 4.79315055 2.68972583 7 6 C7 6.99 7 7.98 7 9 C-0.26 9 -7.52 9 -15 9 C-13.94523499 4.78093998 -13.1470668 3.76560416 -10 1 C-6.80876226 -0.59561887 -3.47254909 -0.3799142 0 0 Z " fill="#F8FBFC" transform="translate(594,286)"/>
<path d="M0 0 C2.65295523 1.39542136 3.92295636 2.715252 6 5 C6.33 6.32 6.66 7.64 7 9 C-0.26 9 -7.52 9 -15 9 C-14 4 -14 4 -12 1.6875 C-7.91181994 -0.61210128 -4.58929849 -0.94366946 0 0 Z " fill="#F7FBFC" transform="translate(879,286)"/>
<path d="M0 0 C3.58552881 1.63687185 4.79315055 2.68972583 7 6 C7 6.99 7 7.98 7 9 C-0.26 9 -7.52 9 -15 9 C-11.93879627 1.34699067 -8.07611573 -1.37326664 0 0 Z " fill="#F9FBFD" transform="translate(676,286)"/>
<path d="M0 0 C0.99 0.33 1.98 0.66 3 1 C2.2575 1.70125 1.515 2.4025 0.75 3.125 C-2.08109249 5.89154871 -2.08109249 5.89154871 -4 9.1875 C-6.30076552 12.42295151 -7.36828274 12.67937554 -11 14 C-13.74965856 15.89455059 -16.37913703 17.9319245 -19 20 C-19 19.01 -19 18.02 -19 17 C-16.875 15.01953125 -16.875 15.01953125 -14 12.8125 C-8.96720015 8.84095031 -4.41450181 4.64218386 0 0 Z " fill="#E3F9FC" transform="translate(242,308)"/>
<path d="M0 0 C12.87 0 25.74 0 39 0 C38.01 1.65 37.02 3.3 36 5 C35.34 4.67 34.68 4.34 34 4 C32.46331135 3.77532169 30.92031946 3.59203195 29.375 3.4375 C28.55773437 3.35371094 27.74046875 3.26992188 26.8984375 3.18359375 C26.27195313 3.12300781 25.64546875 3.06242187 25 3 C25 2.67 25 2.34 25 2 C16.75 1.67 8.5 1.34 0 1 C0 0.67 0 0.34 0 0 Z " fill="#A3E7F8" transform="translate(223,262)"/>
<path d="M0 0 C0 4.04141586 -1.75882509 6.24967578 -3.80859375 9.6484375 C-5.06603222 12.13033245 -5.54179134 14.26854253 -6 17 C-6.33 17.99 -6.66 18.98 -7 20 C-8.63945701 25.49340447 -8.67485208 31.30991134 -9 37 C-9.33 37 -9.66 37 -10 37 C-10.55035412 23.22076346 -9.01655076 12.44878657 -1 1 C-0.67 0.67 -0.34 0.34 0 0 Z " fill="#2177C9" transform="translate(762,163)"/>
<path d="M0 0 C0.66 0.33 1.32 0.66 2 1 C1.6889315 3.06271639 1.37608484 5.12516466 1.0625 7.1875 C0.88847656 8.33605469 0.71445313 9.48460937 0.53515625 10.66796875 C0.08620687 13.46325212 -0.42082162 16.22933586 -1 19 C-1.66 18.67 -2.32 18.34 -3 18 C-2.22095672 5.33029613 -2.22095672 5.33029613 0 0 Z " fill="#DEF7FD" transform="translate(143,254)"/>
<path d="M0 0 C2.97 0 5.94 0 9 0 C9.81674796 1.74802146 10.62823451 3.49850189 11.4375 5.25 C12.11619141 6.71179688 12.11619141 6.71179688 12.80859375 8.203125 C13.78382356 10.49251695 14.4974274 12.57378746 15 15 C14.34 15 13.68 15 13 15 C12.32694982 13.39850114 11.66177773 11.79368971 11 10.1875 C10.62875 9.29417969 10.2575 8.40085937 9.875 7.48046875 C9 5 9 5 9 2 C6.69 2 4.38 2 2 2 C1.67 2.66 1.34 3.32 1 4 C0.67 2.68 0.34 1.36 0 0 Z " fill="#1B79CD" transform="translate(724,279)"/>
<path d="M0 0 C2.64 0 5.28 0 8 0 C8 2.64 8 5.28 8 8 C5.36 8 2.72 8 0 8 C0 7.34 0 6.68 0 6 C1.98 6 3.96 6 6 6 C6 4.35 6 2.7 6 1 C4.02 1 2.04 1 0 1 C0 0.67 0 0.34 0 0 Z " fill="#2D82CB" transform="translate(464,279)"/>
<path d="M0 0 C10.55808656 3.07517084 10.55808656 3.07517084 15 5 C14.67 6.32 14.34 7.64 14 9 C13.62875 8.54625 13.2575 8.0925 12.875 7.625 C10.43385411 5.50934023 8.08011913 4.92403574 5 4 C3.32836805 3.34588315 1.65984798 2.68346682 0 2 C0 1.34 0 0.68 0 0 Z " fill="#D8F7FC" transform="translate(131,245)"/>
<path d="M0 0 C5.61 0 11.22 0 17 0 C12.64841679 3.26368741 10.17888431 3.6255682 5 3 C2 2 2 2 0 1 C0 0.67 0 0.34 0 0 Z " fill="#2781D1" transform="translate(777,317)"/>
<path d="M0 0 C1.78036608 5.60815314 0.01897247 10.91959787 -2.5 16.0625 C-2.995 16.701875 -3.49 17.34125 -4 18 C-4.66 18 -5.32 18 -6 18 C-4.23536928 11.89262558 -2.30442525 5.92566493 0 0 Z " fill="#197ACF" transform="translate(639,285)"/>
<path d="M0 0 C-0.33 0.66 -0.66 1.32 -1 2 C-2.32 2 -3.64 2 -5 2 C-5.66 3.65 -6.32 5.3 -7 7 C-9 3.25 -9 3.25 -9 1 C-3.375 -1.125 -3.375 -1.125 0 0 Z " fill="#E2F8FD" transform="translate(347,249)"/>
<path d="M0 0 C1.32 1.32 2.64 2.64 4 4 C2.9275 4.103125 1.855 4.20625 0.75 4.3125 C-2.85820872 4.97400493 -4.36395023 5.57483421 -7 8 C-7.66 7.67 -8.32 7.34 -9 7 C-6.03 4.69 -3.06 2.38 0 0 Z " fill="#1A74C9" transform="translate(819,211)"/>
<path d="M0 0 C2.97 0 5.94 0 9 0 C8.34 1.32 7.68 2.64 7 4 C7 3.34 7 2.68 7 2 C4.69 2.33 2.38 2.66 0 3 C0 2.01 0 1.02 0 0 Z " fill="#177AD0" transform="translate(755,279)"/>
<path d="M0 0 C2.64 1.98 5.28 3.96 8 6 C7.34 6.66 6.68 7.32 6 8 C5.21625 7.360625 4.4325 6.72125 3.625 6.0625 C1.20460719 4.01857687 1.20460719 4.01857687 -1 3 C-0.67 2.01 -0.34 1.02 0 0 Z " fill="#E7F9FC" transform="translate(251,316)"/>
<path d="M0 0 C-2.3129482 2.3129482 -3.47904875 2.49580975 -6.625 3.125 C-7.44226563 3.29257812 -8.25953125 3.46015625 -9.1015625 3.6328125 C-10.04128906 3.81457031 -10.04128906 3.81457031 -11 4 C-7.66477677 0.47086844 -4.87838929 -1.62612976 0 0 Z " fill="#23BCF1" transform="translate(168,44)"/>
</svg>
